<?xml version="1.0" encoding="UTF-8" standalone="no"?>
<!-- Created with Inkscape (http://www.inkscape.org/) -->

<svg
   xmlns:dc="http://purl.org/dc/elements/1.1/"
   xmlns:cc="http://creativecommons.org/ns#"
   xmlns:rdf="http://www.w3.org/1999/02/22-rdf-syntax-ns#"
   xmlns:svg="http://www.w3.org/2000/svg"
   xmlns="http://www.w3.org/2000/svg"
   xmlns:sodipodi="http://sodipodi.sourceforge.net/DTD/sodipodi-0.dtd"
   xmlns:inkscape="http://www.inkscape.org/namespaces/inkscape"
   width="297mm"
   height="210mm"
   viewBox="0 0 1052.3622 744.09448"
   id="svg6110"
   version="1.1"
   inkscape:version="0.91 r13725"
   sodipodi:docname="logo c-r.svg">
  <defs
     id="defs6112" />
  <sodipodi:namedview
     id="base"
     pagecolor="#ffffff"
     bordercolor="#666666"
     borderopacity="1.0"
     inkscape:pageopacity="0.0"
     inkscape:pageshadow="2"
     inkscape:zoom="0.24748737"
     inkscape:cx="818.3873"
     inkscape:cy="224.20893"
     inkscape:document-units="px"
     inkscape:current-layer="layer1"
     showgrid="false"
     inkscape:window-width="1301"
     inkscape:window-height="744"
     inkscape:window-x="65"
     inkscape:window-y="24"
     inkscape:window-maximized="1" />
  <metadata
     id="metadata6115">
    <rdf:RDF>
      <cc:Work
         rdf:about="">
        <dc:format>image/svg+xml</dc:format>
        <dc:type
           rdf:resource="http://purl.org/dc/dcmitype/StillImage" />
        <dc:title></dc:title>
      </cc:Work>
    </rdf:RDF>
  </metadata>
  <g
     inkscape:label="Calque 1"
     inkscape:groupmode="layer"
     id="layer1"
     transform="translate(0,-308.26772)">
    <g
       id="g6777"
       transform="translate(133.34014,197.9899)">
      <path
         sodipodi:nodetypes="ccsssssccssssscsssssccssssscc"
         inkscape:connector-curvature="0"
         id="path6658"
         d="m 331.36719,203.03125 -1.38477,2.93359 c 0,0 -26.444,55.97078 -58.34375,117.08985 -15.94987,30.55953 -33.26253,62.40321 -49.30273,89.16015 -16.0402,26.75695 -30.89427,48.47409 -41.53125,58.51758 -21.74842,20.53496 -34.23533,26.49547 -40.75781,27.4336 -3.26125,0.46906 -4.99264,-0.22781 -5.97266,-0.9004 -0.98002,-0.67258 -1.16406,-1.2246 -1.16406,-1.2246 l -2.96289,1.21289 c 0,0 0.66234,1.51521 2.3164,2.65039 1.65406,1.13517 4.34478,1.98773 8.23828,1.42773 7.78701,-1.12 25.58748,-0.46453 47.55076,-21.20237 11.21887,-10.5929 30.025,-31.34085 46.11874,-58.18711 16.09374,-26.84626 31.40873,-66.81418 47.37618,-97.40739 30.6517,-58.72782 47.93383,-110.09583 49.9426,-114.33789 2.15244,4.1727 20.30158,58.99558 53.49886,116.89022 17.28995,30.15293 29.03248,66.59421 46.58909,92.94333 17.55661,26.34913 34.77422,45.59979 47.27773,55.73361 24.49241,19.85056 55.0302,18.83895 65.54253,19.81955 5.25616,0.49031 9.033,-0.30836 11.51562,-1.28125 2.48263,-0.97288 3.79297,-2.24218 3.79297,-2.24218 l -2.27148,-2.25391 c 0,0 -0.67365,0.72763 -2.68946,1.51758 -2.0158,0.78995 -5.25166,1.51993 -10.05078,1.07226 -9.59822,-0.89533 -25.48555,-6.5771 -49.68164,-26.1875 -11.84074,-9.59666 -28.12792,-30.79199 -45.61914,-57.04296 -17.49121,-26.25098 -36.27851,-57.59565 -53.54687,-87.71094 -34.53673,-60.23058 -62.9961,-115.53906 -62.9961,-115.53906 z"
         style="color:#000000;font-style:normal;font-variant:normal;font-weight:normal;font-stretch:normal;font-size:medium;line-height:normal;font-family:sans-serif;text-indent:0;text-align:start;text-decoration:none;text-decoration-line:none;text-decoration-style:solid;text-decoration-color:#000000;letter-spacing:normal;word-spacing:normal;text-transform:none;direction:ltr;block-progression:tb;writing-mode:lr-tb;baseline-shift:baseline;text-anchor:start;white-space:normal;clip-rule:nonzero;display:inline;overflow:visible;visibility:visible;opacity:1;isolation:auto;mix-blend-mode:normal;color-interpolation:sRGB;color-interpolation-filters:linearRGB;solid-color:#000000;solid-opacity:1;fill:#000000;fill-opacity:1;fill-rule:evenodd;stroke:none;stroke-width:3.20000005;stroke-linecap:butt;stroke-linejoin:miter;stroke-miterlimit:4;stroke-dasharray:none;stroke-dashoffset:0;stroke-opacity:1;color-rendering:auto;image-rendering:auto;shape-rendering:auto;text-rendering:auto;enable-background:accumulate" />
      <path
         sodipodi:nodetypes="ccsssssssssccssssssssccc"
         inkscape:connector-curvature="0"
         id="path6660"
         d="m 332.38281,204.98242 -3.11523,0.73438 c 0,0 4.18712,17.74158 7.18359,39.875 2.99647,22.13341 -2.34384,48.69828 -6.99687,65.83008 -4.63997,17.08379 -11.03849,30.90601 -24.6262,45.10937 -13.5877,14.20336 -35.37513,28.80967 -39.71403,47.83398 -4.34843,19.0661 10.41182,38.75582 16.86443,58.0625 6.45261,19.30669 4.58943,41.25588 0.31917,58.71992 -4.26749,17.45269 -10.54451,27.99445 -24.72933,41.27423 -14.18482,13.27977 -28.25958,26.27138 -30.85547,43.21093 -2.58171,16.847 4.66156,37.94114 12.40625,54.97071 7.74469,17.02956 16.11524,29.98242 16.11524,29.98242 l 2.6875,-1.73633 c 0,0 -8.25245,-12.77494 -15.89063,-29.57031 -7.63818,-16.79537 -14.5355,-37.62352 -12.1543,-53.16211 2.36702,-15.44604 14.68307,-21.00772 28.86876,-34.28831 14.18569,-13.28059 30.17581,-34.27527 34.74257,-52.95193 4.56399,-18.66531 4.03942,-38.15472 -2.41369,-57.46289 -6.4531,-19.30816 -18.84188,-38.44111 -14.76014,-56.33789 4.09127,-17.93857 20.28781,-25.07734 33.85663,-39.26096 13.56883,-14.18362 24.50898,-35.38999 29.4422,-53.55349 4.92018,-18.1155 3.02892,-44.79669 0.01,-67.09766 -3.01916,-22.30096 -7.24024,-40.18164 -7.24024,-40.18164 z"
         style="color:#000000;font-style:normal;font-variant:normal;font-weight:normal;font-stretch:normal;font-size:medium;line-height:normal;font-family:sans-serif;text-indent:0;text-align:start;text-decoration:none;text-decoration-line:none;text-decoration-style:solid;text-decoration-color:#000000;letter-spacing:normal;word-spacing:normal;text-transform:none;direction:ltr;block-progression:tb;writing-mode:lr-tb;baseline-shift:baseline;text-anchor:start;white-space:normal;clip-rule:nonzero;display:inline;overflow:visible;visibility:visible;opacity:1;isolation:auto;mix-blend-mode:normal;color-interpolation:sRGB;color-interpolation-filters:linearRGB;solid-color:#000000;solid-opacity:1;fill:#000000;fill-opacity:1;fill-rule:evenodd;stroke:none;stroke-width:3.20000005;stroke-linecap:butt;stroke-linejoin:miter;stroke-miterlimit:4;stroke-dasharray:none;stroke-dashoffset:0;stroke-opacity:1;color-rendering:auto;image-rendering:auto;shape-rendering:auto;text-rendering:auto;enable-background:accumulate" />
      <path
         sodipodi:nodetypes="ccssssssccsssssc"
         inkscape:connector-curvature="0"
         id="path6664"
         d="m 331.8125,209.32031 -2.98633,1.14844 c 0,0 9.53682,24.81796 18.8418,54.86914 9.30498,30.05119 18.32154,65.46057 17.41992,85.9082 -0.90367,20.49425 -18.13642,33.42719 -27.54763,48.35274 -9.41122,14.92555 -11.01183,31.96267 -7.79026,51.97734 3.2326,20.0832 18.11699,36.16038 34.63281,52.14649 16.51583,15.9861 34.75818,31.94542 45.34375,51.39843 10.65061,19.57254 22.28658,52.6441 31.19727,80.73829 27.55318,86.1314 -10.70938,-58.20879 -23.84103,-83.27773 -10.96929,-20.15818 -28.48638,-36.26572 -44.91758,-52.16992 -16.43121,-15.90421 -30.67068,-30.02475 -33.69922,-48.84024 -3.03958,-18.88402 2.51379,-32.88158 11.88282,-47.74024 9.36903,-14.85865 25.06845,-30.96407 26.0156,-52.44453 0.94922,-21.52707 -16.29934,-56.82833 -25.63981,-86.99414 -9.34047,-30.16582 -18.91211,-55.07227 -18.91211,-55.07227 z"
         style="color:#000000;font-style:normal;font-variant:normal;font-weight:normal;font-stretch:normal;font-size:medium;line-height:normal;font-family:sans-serif;text-indent:0;text-align:start;text-decoration:none;text-decoration-line:none;text-decoration-style:solid;text-decoration-color:#000000;letter-spacing:normal;word-spacing:normal;text-transform:none;direction:ltr;block-progression:tb;writing-mode:lr-tb;baseline-shift:baseline;text-anchor:start;white-space:normal;clip-rule:nonzero;display:inline;overflow:visible;visibility:visible;opacity:1;isolation:auto;mix-blend-mode:normal;color-interpolation:sRGB;color-interpolation-filters:linearRGB;solid-color:#000000;solid-opacity:1;fill:#000000;fill-opacity:1;fill-rule:evenodd;stroke:none;stroke-width:3.20000005;stroke-linecap:butt;stroke-linejoin:miter;stroke-miterlimit:4;stroke-dasharray:none;stroke-dashoffset:0;stroke-opacity:1;color-rendering:auto;image-rendering:auto;shape-rendering:auto;text-rendering:auto;enable-background:accumulate" />
      <path
         sodipodi:nodetypes="ccsssccsssccccccc"
         inkscape:connector-curvature="0"
         id="path6692"
         d="m 278.20312,439.70898 4.1211,22.66797 c -0.0734,0.18758 -2.61898,6.68779 -6.76172,14.83008 -4.20281,8.26034 -10.0053,18.07913 -16.30273,24.26563 -12.65086,12.428 -34.30139,23.06488 -53.36329,30.19336 -18.95229,7.08749 -59.48632,12.09375 -59.48632,12.09375 l 0.12304,0.99218 c 0,0 40.46899,-2.42846 59.71289,-9.62501 19.13431,-7.15556 45.91029,-14.25352 58.76365,-26.88047 6.45468,-6.34098 18.83421,-27.33131 23.06013,-35.63707 4.22593,-8.30577 -4.76128,-9.99417 -4.76128,-9.99417 l 0.0508,-0.13281 -4.06446,-22.36133 -0.49219,0.58789 0,-1 -0.59961,0 z"
         style="color:#000000;font-style:normal;font-variant:normal;font-weight:normal;font-stretch:normal;font-size:medium;line-height:normal;font-family:sans-serif;text-indent:0;text-align:start;text-decoration:none;text-decoration-line:none;text-decoration-style:solid;text-decoration-color:#000000;letter-spacing:normal;word-spacing:normal;text-transform:none;direction:ltr;block-progression:tb;writing-mode:lr-tb;baseline-shift:baseline;text-anchor:start;white-space:normal;clip-rule:nonzero;display:inline;overflow:visible;visibility:visible;opacity:1;isolation:auto;mix-blend-mode:normal;color-interpolation:sRGB;color-interpolation-filters:linearRGB;solid-color:#000000;solid-opacity:1;fill:#000000;fill-opacity:1;fill-rule:evenodd;stroke:none;stroke-width:1px;stroke-linecap:butt;stroke-linejoin:miter;stroke-miterlimit:4;stroke-dasharray:none;stroke-dashoffset:0;stroke-opacity:1;color-rendering:auto;image-rendering:auto;shape-rendering:auto;text-rendering:auto;enable-background:accumulate" />
      <path
         sodipodi:nodetypes="ccssssccssssc"
         inkscape:connector-curvature="0"
         id="path6698"
         d="m 378.22266,513.6875 -0.85157,0.52734 c 0,0 4.36142,7.049 8.68164,16.11328 4.32023,9.06429 6.04878,19.66015 5.89259,27.55547 -0.3179,16.06971 -2.60908,33.67969 -16.88477,45.41914 -7.01125,5.76562 -22.29215,9.14592 -35.76563,10.98438 -13.47347,1.83846 -25.15234,2.19922 -25.15234,2.19922 l 0.0293,1 c 0,0 11.72497,-0.36048 25.25781,-2.20703 13.53283,-1.84656 30.88001,-4.10475 38.28593,-10.19493 14.55867,-11.97215 21.97724,-30.42044 22.29882,-46.67617 0.16355,-8.26739 -2.14736,-21.91676 -6.49337,-31.03514 -4.34601,-9.11839 -15.29841,-13.68556 -15.29841,-13.68556 z"
         style="color:#000000;font-style:normal;font-variant:normal;font-weight:normal;font-stretch:normal;font-size:medium;line-height:normal;font-family:sans-serif;text-indent:0;text-align:start;text-decoration:none;text-decoration-line:none;text-decoration-style:solid;text-decoration-color:#000000;letter-spacing:normal;word-spacing:normal;text-transform:none;direction:ltr;block-progression:tb;writing-mode:lr-tb;baseline-shift:baseline;text-anchor:start;white-space:normal;clip-rule:nonzero;display:inline;overflow:visible;visibility:visible;opacity:1;isolation:auto;mix-blend-mode:normal;color-interpolation:sRGB;color-interpolation-filters:linearRGB;solid-color:#000000;solid-opacity:1;fill:#000000;fill-opacity:1;fill-rule:evenodd;stroke:none;stroke-width:1px;stroke-linecap:butt;stroke-linejoin:miter;stroke-miterlimit:4;stroke-dasharray:none;stroke-dashoffset:0;stroke-opacity:1;color-rendering:auto;image-rendering:auto;shape-rendering:auto;text-rendering:auto;enable-background:accumulate" />
      <path
         sodipodi:nodetypes="ccsssscccccsssscc"
         inkscape:connector-curvature="0"
         id="path6702"
         d="m 389.20312,521.62891 -0.58984,0.80664 c 0,0 9.73515,14.7588 26.10119,25.42576 16.36604,10.66695 39.32888,23.80831 51.8285,27.68124 24.79646,7.68303 43.56821,6.41266 67.89569,3.04845 12.26122,-1.69559 26.14113,-12.05993 42.56135,-18.46327 16.42022,-6.40334 32.32616,-14.40507 32.32616,-14.40507 l -0.20508,0.043 0,-1 -0.10547,0 -0.0977,0.043 c 0,0 -13.36076,5.97365 -29.75586,12.36719 -16.3951,6.39354 -35.84963,13.20401 -47.89063,14.86914 -24.27693,3.35723 -39.75693,3.62248 -64.43359,-4.02344 -12.23694,-3.79154 -31.70032,-15.39839 -48.04101,-26.04882 -16.3407,-10.65044 -29.59376,-20.34375 -29.59376,-20.34375 z"
         style="color:#000000;font-style:normal;font-variant:normal;font-weight:normal;font-stretch:normal;font-size:medium;line-height:normal;font-family:sans-serif;text-indent:0;text-align:start;text-decoration:none;text-decoration-line:none;text-decoration-style:solid;text-decoration-color:#000000;letter-spacing:normal;word-spacing:normal;text-transform:none;direction:ltr;block-progression:tb;writing-mode:lr-tb;baseline-shift:baseline;text-anchor:start;white-space:normal;clip-rule:nonzero;display:inline;overflow:visible;visibility:visible;opacity:1;isolation:auto;mix-blend-mode:normal;color-interpolation:sRGB;color-interpolation-filters:linearRGB;solid-color:#000000;solid-opacity:1;fill:#000000;fill-opacity:1;fill-rule:evenodd;stroke:none;stroke-width:1px;stroke-linecap:butt;stroke-linejoin:miter;stroke-miterlimit:4;stroke-dasharray:none;stroke-dashoffset:0;stroke-opacity:1;color-rendering:auto;image-rendering:auto;shape-rendering:auto;text-rendering:auto;enable-background:accumulate" />
    </g>
  </g>
</svg>
